<svg xmlns="http://www.w3.org/2000/svg" width="1024" height="1024" viewBox="0 0 32 32">
	<rect width="32" height="32" fill="none" />
	<g fill="none">
		<g clip-path="url(#f15idj)">
			<path fill="url(#f15id0)" d="M29.92 15.92C29.92 23.61 19 30 16 30S2.08 23.61 2.08 15.92S8.31 2 16 2s13.92 6.23 13.92 13.92" />
			<path fill="url(#f15id1)" d="M29.92 15.92C29.92 23.61 19 30 16 30S2.08 23.61 2.08 15.92S8.31 2 16 2s13.92 6.23 13.92 13.92" />
			<path fill="url(#f15id2)" d="M29.92 15.92C29.92 23.61 19 30 16 30S2.08 23.61 2.08 15.92S8.31 2 16 2s13.92 6.23 13.92 13.92" />
			<g filter="url(#f15idb)">
				<ellipse cx="22.352" cy="9.901" fill="#9efca0" rx="3.801" ry="5.719" transform="rotate(-43.715 22.352 9.9)" />
			</g>
			<g filter="url(#f15idc)">
				<ellipse fill="#baeebc" fill-opacity="0.75" rx="1.012" ry="3.253" transform="scale(-1 1)rotate(-34.603 12.346 14.426)" />
			</g>
			<g filter="url(#f15idd)">
				<path fill="#608d6a" fill-opacity="0.75" d="M12.73 21.194c-2.315 2.382-5.326 1.429-7.652-.964s-3.076-5.297-.76-7.69a5.824 5.824 0 0 1 8.402 0c2.316 2.382 2.337 6.272.01 8.654" />
			</g>
			<g filter="url(#f15ide)">
				<path fill="#608d6a" fill-opacity="0.75" d="M18.17 21.39c1.851 2.044 4.257 1.226 6.117-.829c1.859-2.054 2.457-4.546.607-6.6c-1.85-2.055-4.864-2.045-6.715 0s-1.867 5.384-.008 7.428" />
			</g>
			<path fill="url(#f15id3)" d="M13.36 20.78c-2.18 2.18-4.46.92-6.65-1.27s-3.45-4.46-1.27-6.65s5.73-2.18 7.91 0s2.2 5.74.01 7.92" />
			<path fill="url(#f15id4)" d="M13.36 20.78c-2.18 2.18-4.46.92-6.65-1.27s-3.45-4.46-1.27-6.65s5.73-2.18 7.91 0s2.2 5.74.01 7.92" />
			<path fill="url(#f15id5)" d="M13.36 20.78c-2.18 2.18-4.46.92-6.65-1.27s-3.45-4.46-1.27-6.65s5.73-2.18 7.91 0s2.2 5.74.01 7.92" />
			<path fill="url(#f15id6)" d="M18.64 20.78c2.18 2.18 4.46.92 6.65-1.27s3.45-4.46 1.27-6.65s-5.73-2.18-7.91 0s-2.19 5.74-.01 7.92" />
			<path fill="url(#f15id7)" d="M18.64 20.78c2.18 2.18 4.46.92 6.65-1.27s3.45-4.46 1.27-6.65s-5.73-2.18-7.91 0s-2.19 5.74-.01 7.92" />
			<path fill="url(#f15id8)" d="M18.64 20.78c2.18 2.18 4.46.92 6.65-1.27s3.45-4.46 1.27-6.65s-5.73-2.18-7.91 0s-2.19 5.74-.01 7.92" />
			<path fill="url(#f15id9)" d="M18.64 20.78c2.18 2.18 4.46.92 6.65-1.27s3.45-4.46 1.27-6.65s-5.73-2.18-7.91 0s-2.19 5.74-.01 7.92" />
			<g filter="url(#f15idf)">
				<path stroke="#686061" stroke-linecap="round" stroke-width="0.75" d="M25.525 13.266c1.633.797 1.469 2.469.625 3.375" />
			</g>
			<path fill="url(#f15idh)" d="M25.67 13.11c.78.78.92 1.9.31 2.51s-1.73.47-2.51-.31s-.92-1.9-.31-2.51s1.74-.46 2.51.31" />
			<g filter="url(#f15idg)">
				<path stroke="#686061" stroke-linecap="round" stroke-width="0.75" d="M12.736 14.344c.442.625.906 2.466.18 4.653" />
			</g>
			<path fill="url(#f15idi)" d="M12.39 13.11c.78.78.92 1.9.31 2.51s-1.73.47-2.51-.31s-.92-1.9-.31-2.51s1.73-.46 2.51.31" />
			<path stroke="url(#f15ida)" stroke-linecap="round" stroke-linejoin="round" stroke-width="1.8" d="M13.992 25.047s.79.844 2.024.844s1.992-.844 1.992-.844" />
		</g>
		<defs>
			<radialGradient id="f15id0" cx="0" cy="0" r="1" gradientTransform="rotate(-124.672 19.611 8.284)scale(29.3341 85.8278)" gradientUnits="userSpaceOnUse">
				<stop offset=".393" stop-color="#92e65b" />
				<stop offset="1" stop-color="#4af492" />
				<stop offset="1" stop-color="#6bd179" />
			</radialGradient>
			<radialGradient id="f15id1" cx="0" cy="0" r="1" gradientTransform="rotate(-153.522 10.917 6.831)scale(18.5035 22.2682)" gradientUnits="userSpaceOnUse">
				<stop offset=".553" stop-color="#67b077" stop-opacity="0" />
				<stop offset="1" stop-color="#67b077" />
			</radialGradient>
			<radialGradient id="f15id2" cx="0" cy="0" r="1" gradientTransform="rotate(-137.076 12.323 5.438)scale(20.7407 20.4878)" gradientUnits="userSpaceOnUse">
				<stop offset=".76" stop-color="#608d6a" stop-opacity="0" />
				<stop offset="1" stop-color="#608d6a" />
			</radialGradient>
			<radialGradient id="f15id3" cx="0" cy="0" r="1" gradientTransform="matrix(-3.32202 -11.22286 13.92707 -4.12248 12.145 25.118)" gradientUnits="userSpaceOnUse">
				<stop stop-color="#482641" />
				<stop offset=".234" stop-color="#4a2943" />
				<stop offset="1" stop-color="#654f5f" />
			</radialGradient>
			<radialGradient id="f15id4" cx="0" cy="0" r="1" gradientTransform="rotate(-142.786 8.606 7.088)scale(11.105 7.13314)" gradientUnits="userSpaceOnUse">
				<stop offset=".531" stop-color="#1a1819" stop-opacity="0" />
				<stop offset=".979" stop-color="#1a1819" />
			</radialGradient>
			<radialGradient id="f15id5" cx="0" cy="0" r="1" gradientTransform="rotate(-153.486 10.88 8.338)scale(15.5407 11.8197)" gradientUnits="userSpaceOnUse">
				<stop offset=".858" stop-color="#a28d8f" stop-opacity="0" />
				<stop offset="1" stop-color="#a28d8f" />
			</radialGradient>
			<radialGradient id="f15id6" cx="0" cy="0" r="1" gradientTransform="matrix(-3.32076 -11.22292 13.923 -4.11969 24.846 25.118)" gradientUnits="userSpaceOnUse">
				<stop stop-color="#482641" />
				<stop offset=".234" stop-color="#4a2943" />
				<stop offset="1" stop-color="#654f5f" />
			</radialGradient>
			<radialGradient id="f15id7" cx="0" cy="0" r="1" gradientTransform="matrix(-6.93745 -5.9663 5.129 -5.96387 23.642 17.188)" gradientUnits="userSpaceOnUse">
				<stop offset=".495" stop-color="#1a1819" stop-opacity="0" />
				<stop offset=".979" stop-color="#1a1819" />
			</radialGradient>
			<radialGradient id="f15id8" cx="0" cy="0" r="1" gradientTransform="rotate(22.793 -24.171 49.768)scale(12.7453 20.3749)" gradientUnits="userSpaceOnUse">
				<stop offset=".713" stop-color="#1a1819" stop-opacity="0" />
				<stop offset=".979" stop-color="#1a1819" />
			</radialGradient>
			<radialGradient id="f15id9" cx="0" cy="0" r="1" gradientTransform="rotate(-153.478 17.23 6.841)scale(15.5363 11.8189)" gradientUnits="userSpaceOnUse">
				<stop offset=".858" stop-color="#a28d8f" stop-opacity="0" />
				<stop offset="1" stop-color="#a28d8f" />
			</radialGradient>
			<radialGradient id="f15ida" cx="0" cy="0" r="1" gradientTransform="matrix(0 11.3438 -9.83652 0 16.174 22.313)" gradientUnits="userSpaceOnUse">
				<stop offset=".07" stop-color="#2e1529" />
				<stop offset=".297" stop-color="#5f4357" />
				<stop offset=".438" stop-color="#4b2744" />
			</radialGradient>
			<filter id="f15idb" width="17.627" height="17.796" x="13.539" y="1.003" color-interpolation-filters="sRGB" filterUnits="userSpaceOnUse">
				<feFlood flood-opacity="0" result="BackgroundImageFix" />
				<feBlend in="SourceGraphic" in2="BackgroundImageFix" result="shape" />
				<feGaussianBlur result="effect1_foregroundBlur_6888_5229" stdDeviation="2" />
			</filter>
			<filter id="f15idc" width="10.054" height="11.479" x=".981" y="3.824" color-interpolation-filters="sRGB" filterUnits="userSpaceOnUse">
				<feFlood flood-opacity="0" result="BackgroundImageFix" />
				<feBlend in="SourceGraphic" in2="BackgroundImageFix" result="shape" />
				<feGaussianBlur result="effect1_foregroundBlur_6888_5229" stdDeviation="1.5" />
			</filter>
			<filter id="f15idd" width="19.555" height="19.824" x="-1.088" y="6.749" color-interpolation-filters="sRGB" filterUnits="userSpaceOnUse">
				<feFlood flood-opacity="0" result="BackgroundImageFix" />
				<feBlend in="SourceGraphic" in2="BackgroundImageFix" result="shape" />
				<feGaussianBlur result="effect1_foregroundBlur_6888_5229" stdDeviation="2" />
			</filter>
			<filter id="f15ide" width="17.234" height="18.15" x="12.784" y="8.423" color-interpolation-filters="sRGB" filterUnits="userSpaceOnUse">
				<feFlood flood-opacity="0" result="BackgroundImageFix" />
				<feBlend in="SourceGraphic" in2="BackgroundImageFix" result="shape" />
				<feGaussianBlur result="effect1_foregroundBlur_6888_5229" stdDeviation="2" />
			</filter>
			<filter id="f15idf" width="5" height="7.125" x="23.65" y="11.391" color-interpolation-filters="sRGB" filterUnits="userSpaceOnUse">
				<feFlood flood-opacity="0" result="BackgroundImageFix" />
				<feBlend in="SourceGraphic" in2="BackgroundImageFix" result="shape" />
				<feGaussianBlur result="effect1_foregroundBlur_6888_5229" stdDeviation=".75" />
			</filter>
			<filter id="f15idg" width="4.308" height="8.403" x="10.861" y="12.469" color-interpolation-filters="sRGB" filterUnits="userSpaceOnUse">
				<feFlood flood-opacity="0" result="BackgroundImageFix" />
				<feBlend in="SourceGraphic" in2="BackgroundImageFix" result="shape" />
				<feGaussianBlur result="effect1_foregroundBlur_6888_5229" stdDeviation=".75" />
			</filter>
			<linearGradient id="f15idh" x1="24.57" x2="24.482" y1="12.054" y2="16" gradientUnits="userSpaceOnUse">
				<stop offset=".198" stop-color="#a3d086" />
				<stop offset="1" stop-color="#a3d086" stop-opacity="0" />
			</linearGradient>
			<linearGradient id="f15idi" x1="11.29" x2="11.202" y1="12.054" y2="16" gradientUnits="userSpaceOnUse">
				<stop offset=".198" stop-color="#a3d086" />
				<stop offset="1" stop-color="#a3d086" stop-opacity="0" />
			</linearGradient>
			<clipPath id="f15idj">
				<path fill="#a3d086" d="M0 0h32v32H0z" />
			</clipPath>
		</defs>
	</g>
</svg>