<?xml version="1.0" encoding="UTF-8" standalone="no"?>
<!-- Created with Inkscape (http://www.inkscape.org/) -->

<svg
   width="155.62851mm"
   height="37.515621mm"
   viewBox="0 0 155.62851 37.515621"
   version="1.1"
   id="svg1"
   xml:space="preserve"
   inkscape:version="1.4 (e7c3feb100, 2024-10-09)"
   sodipodi:docname="drawing.svg"
   xmlns:inkscape="http://www.inkscape.org/namespaces/inkscape"
   xmlns:sodipodi="http://sodipodi.sourceforge.net/DTD/sodipodi-0.dtd"
   xmlns="http://www.w3.org/2000/svg"
   xmlns:svg="http://www.w3.org/2000/svg"><sodipodi:namedview
     id="namedview1"
     pagecolor="#ffffff"
     bordercolor="#000000"
     borderopacity="0.25"
     inkscape:showpageshadow="2"
     inkscape:pageopacity="0.0"
     inkscape:pagecheckerboard="0"
     inkscape:deskcolor="#d1d1d1"
     inkscape:document-units="mm"
     inkscape:zoom="3.3690278"
     inkscape:cx="396.85039"
     inkscape:cy="153.90197"
     inkscape:window-width="3426"
     inkscape:window-height="1388"
     inkscape:window-x="7"
     inkscape:window-y="45"
     inkscape:window-maximized="1"
     inkscape:current-layer="g1"><inkscape:page
       x="-1.0533562e-14"
       y="0"
       width="155.62849"
       height="37.515621"
       id="page2"
       margin="0"
       bleed="0" /></sodipodi:namedview><defs
     id="defs1"><linearGradient
       id="swatch1"
       inkscape:swatch="solid"><stop
         style="stop-color:#000000;stop-opacity:1;"
         offset="0"
         id="stop1" /></linearGradient><radialGradient
       id="f15id0"
       cx="0"
       cy="0"
       r="1"
       gradientTransform="matrix(-16.687515,-24.125013,70.586683,-48.82552,23.954315,29.125103)"
       gradientUnits="userSpaceOnUse"><stop
         offset=".393"
         stop-color="#92e65b"
         id="stop17" /><stop
         offset="1"
         stop-color="#4af492"
         id="stop18" /><stop
         offset="1"
         stop-color="#6bd179"
         id="stop19" /></radialGradient><radialGradient
       id="f15id1"
       cx="0"
       cy="0"
       r="1"
       gradientTransform="matrix(-16.562587,-8.2498623,9.9283694,-19.932391,17.643238,17.812856)"
       gradientUnits="userSpaceOnUse"><stop
         offset=".553"
         stop-color="#67b077"
         stop-opacity="0"
         id="stop20" /><stop
         offset="1"
         stop-color="#67b077"
         id="stop21" /></radialGradient><radialGradient
       id="f15id2"
       cx="0"
       cy="0"
       r="1"
       gradientTransform="matrix(-15.187537,-14.12499,13.952758,-15.002349,17.643183,17.812321)"
       gradientUnits="userSpaceOnUse"><stop
         offset=".76"
         stop-color="#608d6a"
         stop-opacity="0"
         id="stop22" /><stop
         offset="1"
         stop-color="#608d6a"
         id="stop23" /></radialGradient><radialGradient
       id="f15id3"
       cx="0"
       cy="0"
       r="1"
       gradientTransform="matrix(-3.32202,-11.22286,13.92707,-4.12248,12.145,25.118)"
       gradientUnits="userSpaceOnUse"><stop
         stop-color="#482641"
         id="stop24" /><stop
         offset=".234"
         stop-color="#4a2943"
         id="stop25" /><stop
         offset="1"
         stop-color="#654f5f"
         id="stop26" /></radialGradient><radialGradient
       id="f15id4"
       cx="0"
       cy="0"
       r="1"
       gradientTransform="matrix(-8.8438239,-6.7162343,4.3140783,-5.6807055,11.172887,17.937612)"
       gradientUnits="userSpaceOnUse"><stop
         offset=".531"
         stop-color="#1a1819"
         stop-opacity="0"
         id="stop27" /><stop
         offset=".979"
         stop-color="#1a1819"
         id="stop28" /></radialGradient><radialGradient
       id="f15id5"
       cx="0"
       cy="0"
       r="1"
       gradientTransform="matrix(-13.906212,-6.9376245,5.2765088,-10.576567,16.893479,20.656065)"
       gradientUnits="userSpaceOnUse"><stop
         offset=".858"
         stop-color="#a28d8f"
         stop-opacity="0"
         id="stop29" /><stop
         offset="1"
         stop-color="#a28d8f"
         id="stop30" /></radialGradient><radialGradient
       id="f15id6"
       cx="0"
       cy="0"
       r="1"
       gradientTransform="matrix(-3.32076,-11.22292,13.923,-4.11969,24.846,25.118)"
       gradientUnits="userSpaceOnUse"><stop
         stop-color="#482641"
         id="stop31" /><stop
         offset=".234"
         stop-color="#4a2943"
         id="stop32" /><stop
         offset="1"
         stop-color="#654f5f"
         id="stop33" /></radialGradient><radialGradient
       id="f15id7"
       cx="0"
       cy="0"
       r="1"
       gradientTransform="matrix(-6.93745,-5.9663,5.129,-5.96387,23.642,17.188)"
       gradientUnits="userSpaceOnUse"><stop
         offset=".495"
         stop-color="#1a1819"
         stop-opacity="0"
         id="stop34" /><stop
         offset=".979"
         stop-color="#1a1819"
         id="stop35" /></radialGradient><radialGradient
       id="f15id8"
       cx="0"
       cy="0"
       r="1"
       gradientTransform="matrix(11.750026,4.9375669,-7.8932965,18.783834,17.392769,13.250276)"
       gradientUnits="userSpaceOnUse"><stop
         offset=".713"
         stop-color="#1a1819"
         stop-opacity="0"
         id="stop36" /><stop
         offset=".979"
         stop-color="#1a1819"
         id="stop37" /></radialGradient><radialGradient
       id="f15id9"
       cx="0"
       cy="0"
       r="1"
       gradientTransform="matrix(-13.901306,-6.9376013,5.2776283,-10.575114,29.591976,20.655982)"
       gradientUnits="userSpaceOnUse"><stop
         offset=".858"
         stop-color="#a28d8f"
         stop-opacity="0"
         id="stop38" /><stop
         offset="1"
         stop-color="#a28d8f"
         id="stop39" /></radialGradient><radialGradient
       id="f15ida"
       cx="0"
       cy="0"
       r="1"
       gradientTransform="matrix(0,11.3438,-9.83652,0,16.174,22.313)"
       gradientUnits="userSpaceOnUse"><stop
         offset=".07"
         stop-color="#2e1529"
         id="stop40" /><stop
         offset=".297"
         stop-color="#5f4357"
         id="stop41" /><stop
         offset=".438"
         stop-color="#4b2744"
         id="stop42" /></radialGradient><filter
       id="f15idb"
       width="17.627001"
       height="17.796"
       x="13.539"
       y="1.003"
       color-interpolation-filters="sRGB"
       filterUnits="userSpaceOnUse"><feFlood
         flood-opacity="0"
         result="BackgroundImageFix"
         id="feFlood42" /><feBlend
         in="SourceGraphic"
         in2="BackgroundImageFix"
         result="shape"
         id="feBlend42"
         mode="normal" /><feGaussianBlur
         result="effect1_foregroundBlur_6888_5229"
         stdDeviation="2"
         id="feGaussianBlur42" /></filter><filter
       id="f15idc"
       width="10.054"
       height="11.479"
       x="0.98100001"
       y="3.8239999"
       color-interpolation-filters="sRGB"
       filterUnits="userSpaceOnUse"><feFlood
         flood-opacity="0"
         result="BackgroundImageFix"
         id="feFlood43" /><feBlend
         in="SourceGraphic"
         in2="BackgroundImageFix"
         result="shape"
         id="feBlend43"
         mode="normal" /><feGaussianBlur
         result="effect1_foregroundBlur_6888_5229"
         stdDeviation="1.5"
         id="feGaussianBlur43" /></filter><filter
       id="f15idd"
       width="19.555"
       height="19.823999"
       x="-1.0880001"
       y="6.7490001"
       color-interpolation-filters="sRGB"
       filterUnits="userSpaceOnUse"><feFlood
         flood-opacity="0"
         result="BackgroundImageFix"
         id="feFlood44" /><feBlend
         in="SourceGraphic"
         in2="BackgroundImageFix"
         result="shape"
         id="feBlend44"
         mode="normal" /><feGaussianBlur
         result="effect1_foregroundBlur_6888_5229"
         stdDeviation="2"
         id="feGaussianBlur44" /></filter><filter
       id="f15ide"
       width="17.233999"
       height="18.15"
       x="12.784"
       y="8.4230003"
       color-interpolation-filters="sRGB"
       filterUnits="userSpaceOnUse"><feFlood
         flood-opacity="0"
         result="BackgroundImageFix"
         id="feFlood45" /><feBlend
         in="SourceGraphic"
         in2="BackgroundImageFix"
         result="shape"
         id="feBlend45"
         mode="normal" /><feGaussianBlur
         result="effect1_foregroundBlur_6888_5229"
         stdDeviation="2"
         id="feGaussianBlur45" /></filter><filter
       id="f15idf"
       width="5"
       height="7.125"
       x="23.65"
       y="11.391"
       color-interpolation-filters="sRGB"
       filterUnits="userSpaceOnUse"><feFlood
         flood-opacity="0"
         result="BackgroundImageFix"
         id="feFlood46" /><feBlend
         in="SourceGraphic"
         in2="BackgroundImageFix"
         result="shape"
         id="feBlend46"
         mode="normal" /><feGaussianBlur
         result="effect1_foregroundBlur_6888_5229"
         stdDeviation=".75"
         id="feGaussianBlur46" /></filter><filter
       id="f15idg"
       width="4.3080001"
       height="8.4029999"
       x="10.861"
       y="12.469"
       color-interpolation-filters="sRGB"
       filterUnits="userSpaceOnUse"><feFlood
         flood-opacity="0"
         result="BackgroundImageFix"
         id="feFlood47" /><feBlend
         in="SourceGraphic"
         in2="BackgroundImageFix"
         result="shape"
         id="feBlend47"
         mode="normal" /><feGaussianBlur
         result="effect1_foregroundBlur_6888_5229"
         stdDeviation=".75"
         id="feGaussianBlur47" /></filter><linearGradient
       id="f15idh"
       x1="24.57"
       x2="24.482"
       y1="12.054"
       y2="16"
       gradientUnits="userSpaceOnUse"><stop
         offset=".198"
         stop-color="#a3d086"
         id="stop47" /><stop
         offset="1"
         stop-color="#a3d086"
         stop-opacity="0"
         id="stop48" /></linearGradient><linearGradient
       id="f15idi"
       x1="11.29"
       x2="11.202"
       y1="12.054"
       y2="16"
       gradientUnits="userSpaceOnUse"><stop
         offset=".198"
         stop-color="#a3d086"
         id="stop49" /><stop
         offset="1"
         stop-color="#a3d086"
         stop-opacity="0"
         id="stop50" /></linearGradient><clipPath
       id="f15idj"><path
         fill="#a3d086"
         d="M 0,0 H 32 V 32 H 0 Z"
         id="path50" /></clipPath></defs><g
     inkscape:label="Layer 1"
     inkscape:groupmode="layer"
     id="layer1"
     transform="translate(-8.6310879,-4.669371)"><g
       id="g1"
       transform="matrix(1.2286836,0,0,1.2286836,-2.6481877,14.921106)"><path
         style="font-size:20.6725px;font-family:'Guavine Demo';-inkscape-font-specification:'Guavine Demo';fill:#52f57b;fill-opacity:1;stroke-width:0.813879;stroke-linejoin:bevel;paint-order:markers stroke fill"
         d="m 33.617234,13.653861 c -0.558157,0 -0.558157,0.847572 0.103363,0.847572 h 2.025905 c 0.66152,0 0.66152,-0.847572 0.103362,-0.847572 -0.41345,0 -0.49614,-0.454795 -0.49614,-1.24035 V 2.387348 l 5.891663,11.845343 c 0.08269,0.16538 0.16538,0.268742 0.475467,0.268742 h 0.392778 c 1.633128,0 0.516813,-0.888917 0.516813,-1.943215 V 2.1186055 c 0,-0.785555 0.08269,-1.24035003 0.49614,-1.24035003 0.558157,0 0.558157,-0.84757252 -0.103363,-0.84757252 h -2.025905 c -0.66152,0 -0.66152,0.84757252 -0.103363,0.84757252 0.41345,0 0.49614,0.45479503 0.49614,1.24035003 V 8.0102682 L 37.586354,0.36144296 C 37.482992,0.15471795 37.420974,0.03068295 37.152232,0.03068295 h -3.431635 c -0.66152,0 -0.66152,0.84757252 -0.103363,0.84757252 0.41345,0 0.49614,0.45479503 0.49614,1.24035003 V 12.413511 c 0,0.785555 -0.08269,1.24035 -0.49614,1.24035 z M 43.994822,9.3333082 c 0,3.0181848 2.14994,5.3748498 4.899382,5.3748498 2.749443,0 4.899383,-2.356665 4.899383,-5.3748498 0,-3.0181851 -2.475131,-5.3748502 -4.899383,-5.3748501 -2.424251,10e-8 -4.899382,2.356665 -4.899382,5.3748501 z m 7.173357,1.1576598 c 0.0032,1.195828 -0.640847,3.183565 -1.6538,3.183565 -1.48842,0 -2.889766,-3.8653071 -2.89415,-5.4988848 -0.0044,-1.6335777 0.02022,-3.1791808 1.6538,-3.1835651 1.633578,-0.00438 2.888591,3.4275579 2.89415,5.4988849 z m 3.45231,-6.2637674 c -0.310087,0.206725 -0.289415,0.9716075 0.16538,0.9716075 h 0.785555 v 5.9950249 c 0,2.294648 1.24035,3.514325 3.390291,3.514325 1.612455,0 2.997512,-0.682192 2.997512,-2.211957 0,-1.178333 -0.806227,-1.963888 -1.73649,-1.963888 -0.74421,0 -1.343712,0.516813 -0.888917,1.509093 0.41345,0.888917 0.57883,1.633127 -0.16538,1.633127 -0.682193,0 -0.868245,-0.640847 -0.888918,-3.3076 V 5.1988081 H 60.3261 c 0.41345,0 0.392777,-1.033625 0,-1.033625 H 58.279522 V 1.5397755 c 0,-0.1860525 -0.06202,-0.2687425 -0.16538,-0.2687425 -0.124035,0 -0.289415,0.1033625 -0.475467,0.2687425 z m 7.958915,5.1061076 c 0,3.1215478 2.439355,5.3748498 5.085435,5.3748498 2.439355,0 3.72105,-1.922542 3.824413,-3.576342 0.02067,-0.434123 -0.02067,-1.1576603 -0.434123,-1.3023678 -0.04134,-0.020672 -0.06202,-0.020672 -0.103362,-0.020672 -0.289415,0 -0.392778,0.4754668 -0.434123,0.7028648 -0.206725,1.281695 -1.07497,2.129267 -2.191285,2.129267 -1.757162,0 -2.852805,-1.674472 -3.080202,-3.7417218 0.74421,0.868245 1.467747,1.2196768 2.39801,1.2196768 1.757162,0 3.266255,-1.3850568 3.266255,-3.1422193 0,-1.6744726 -1.364385,-3.0181851 -3.55567,-3.0181851 -2.522045,0 -4.775348,2.2533025 -4.775348,5.3748496 z m 4.341225,-0.2687425 c -0.57883,0 -1.178332,-0.3927775 -1.715817,-0.99228 0,-1.5504376 0.49614,-3.0802026 1.57111,-3.0802026 0.785555,0 1.447075,0.74421 1.447075,2.1292676 0,1.1783325 -0.475468,1.943215 -1.302368,1.943215 z M 77.918408,6.0257081 c -0.558157,0.454795 -0.702865,0.8889175 0,0.8475725 0.310088,-0.020672 0.392778,-0.16538 0.392778,0.6201751 v 4.9200553 c 0,0.785555 -0.08269,1.24035 -0.49614,1.24035 -0.558158,0 -0.558158,0.847572 0.103362,0.847572 h 3.493653 c 0.66152,0 0.66152,-0.847572 0.103362,-0.847572 -0.41345,0 -0.49614,-0.454795 -0.49614,-1.24035 v -1.343713 c 0,-1.6124548 0.41345,-5.8916624 1.963888,-5.8916624 1.116315,0 1.261022,2.1085951 1.261022,7.2353754 0,0.785555 -0.08269,1.24035 -0.49614,1.24035 -0.558157,0 -0.558157,0.847572 0.103363,0.847572 h 3.493653 c 0.66152,0 0.66152,-0.847572 0.103362,-0.847572 -0.41345,0 -0.49614,-0.454795 -0.49614,-5.3128328 0,-2.6874251 -0.516812,-4.3825701 -2.770115,-4.3825701 -1.715818,0 -2.604735,0.9716075 -3.162893,2.2533025 v -1.81918 c 0,-0.3100875 -0.144707,-0.4341225 -0.372105,-0.4341225 -0.227397,0 -0.558157,0.16538 -0.8269,0.41345 -1.73649,1.5917825 -1.095642,0.99228 -1.90187,1.6538 z m 10.046836,-1.860525 c -0.475468,0 -0.475468,0.620175 -0.06202,0.620175 0.289415,0 0.475468,0.3514325 0.640848,0.8889175 l 2.873477,8.4137074 c 0.16538,0.475468 0.682193,0.702865 1.15766,0.702865 0.454795,0 0.868245,-0.186052 0.99228,-0.537485 l 2.89415,-8.5790874 c 0.186053,-0.537485 0.351433,-0.8889175 0.640848,-0.8889175 0.41345,0 0.41345,-0.620175 -0.08269,-0.620175 h -1.839853 c -0.475467,0 -0.475467,0.620175 -0.08269,0.620175 0.310088,0 0.268743,0.3514325 0.08269,0.8889175 l -1.90187,5.4988854 -1.90187,-5.4988854 c -0.186052,-0.537485 -0.24807,-0.8889175 0.04135,-0.8889175 0.41345,0 0.41345,-0.620175 -0.06202,-0.620175 z m 14.512086,2.8941501 c 0,3.0802028 -5.188795,1.3437125 -5.188795,4.9407278 0,2.025905 1.612455,2.708097 3.100875,2.708097 0.93026,0 1.81918,-0.268742 2.23263,-0.66152 0.18605,0.392778 0.62017,0.66152 1.61245,0.66152 0.62018,0 1.21968,-0.144707 1.71582,-0.454795 0.74421,-0.454795 0.88892,-1.095642 0.53749,-1.095642 -0.0827,0 -0.20673,0.04134 -0.37211,0.144707 -0.16538,0.103363 -0.28941,0.144708 -0.41345,0.144708 -0.35143,0 -0.49614,-0.434123 -0.49614,-1.033625 V 7.4727832 c 0,-2.0052326 -1.90187,-3.5143251 -4.42391,-3.5143251 -1.612458,0 -2.997515,0.6821925 -2.997515,2.356665 0,1.0336251 0.537485,1.8191801 1.612455,1.8191801 0.86824,0 1.46775,-0.5168125 1.03362,-1.4677476 -0.434118,-0.9302625 0.0207,-1.6538 0.90959,-1.6538 0.84758,0 1.07497,0.620175 1.13699,2.0465776 z m -2.480698,5.0440898 c 0,-1.715817 1.509088,-1.633127 2.501368,-2.6047348 v 3.5556698 c -0.3721,0.310088 -0.84757,0.558158 -1.30236,0.558158 -0.64085,0 -1.199008,-0.454795 -1.199008,-1.509093 z M 111.40787,3.9584581 c -2.25331,0 -4.1345,2.3359925 -4.1345,5.3748501 0,3.2455828 1.92254,5.3748498 4.69265,5.3748498 0.93027,0 1.57111,-0.24807 2.02591,-0.640847 0.18605,0.392777 0.62017,0.640847 1.59178,0.640847 0.62018,0 1.21968,-0.144707 1.71582,-0.454795 0.74421,-0.454795 0.88892,-1.095642 0.53748,-1.095642 -0.0827,0 -0.20672,0.04134 -0.3721,0.144707 -0.16538,0.103363 -0.28942,0.144708 -0.41345,0.144708 -0.35143,0 -0.49614,-0.434123 -0.49614,-1.033625 V 0.25808045 c 0,-0.31008751 -0.14471,-0.43412251 -0.37211,-0.43412251 -0.22739,0 -0.55815,0.16538 -0.8269,0.41345001 -1.73649,1.59178255 -1.09564,0.99228005 -1.90187,1.65380005 -0.55815,0.454795 -0.70286,0.8889175 0,0.8475725 0.31009,-0.020672 0.39278,-0.16538 0.39278,0.620175 v 2.0052326 c -0.53748,-0.8269 -1.32304,-1.40573 -2.43935,-1.40573 z m -1.5091,4.2171901 c 0,-1.6124551 0.47547,-3.1835651 1.92255,-3.1835651 2.31532,0 2.6254,3.8450851 2.6254,5.4988849 0,1.033625 -0.24807,3.183565 -1.67447,3.183565 -1.71582,0 -2.87348,-3.14222 -2.87348,-5.4988848 z m 8.43438,1.15766 c 0,3.1215478 2.43936,5.3748498 5.08544,5.3748498 2.43935,0 3.72105,-1.922542 3.82441,-3.576342 0.0207,-0.434123 -0.0207,-1.1576603 -0.43412,-1.3023678 -0.0414,-0.020672 -0.062,-0.020672 -0.10337,-0.020672 -0.28941,0 -0.39277,0.4754668 -0.43412,0.7028658 -0.20672,1.281694 -1.07497,2.129267 -2.19128,2.129267 -1.75717,0 -2.85281,-1.674472 -3.08021,-3.7417228 0.74421,0.868245 1.46775,1.2196778 2.39801,1.2196778 1.75717,0 3.26626,-1.3850578 3.26626,-3.1422203 0,-1.6744726 -1.36439,-3.0181851 -3.55567,-3.0181851 -2.52205,0 -4.77535,2.2533025 -4.77535,5.3748496 z m 4.34123,-0.2687425 c -0.57883,0 -1.17834,-0.3927775 -1.71582,-0.99228 0,-1.5504376 0.49614,-3.0802026 1.57111,-3.0802026 0.78555,0 1.44707,0.74421 1.44707,2.1292676 0,1.1783325 -0.47546,1.943215 -1.30236,1.943215 z m 5.97435,-3.0388576 c -0.55816,0.454795 -0.70286,0.8889175 0,0.8475725 0.31009,-0.020672 0.39278,-0.16538 0.39278,0.6201751 v 4.9200553 c 0,0.785555 -0.0827,1.24035 -0.49614,1.24035 -0.55816,0 -0.55816,0.847572 0.10336,0.847572 h 3.49365 c 0.66152,0 0.66152,-0.847572 0.10337,-0.847572 -0.41345,0 -0.49614,-0.454795 -0.49614,-1.24035 V 9.5607057 c 0.1447,-2.522045 0.70286,-4.3825701 1.30236,-4.3825701 0.49614,0 0.59951,0.7235375 0.2274,1.529765 -0.53748,1.1163151 0.0827,1.6331276 0.8269,1.6331276 0.93026,0 1.73649,-0.785555 1.73649,-2.0259051 0,-1.3437125 -0.95093,-2.356665 -2.04658,-2.356665 -0.90959,0 -1.59178,0.6821925 -2.04657,1.777835 V 4.3925806 c 0,-0.3100875 -0.14471,-0.4341225 -0.37211,-0.4341225 -0.2274,0 -0.55816,0.16538 -0.8269,0.41345 -1.73649,1.5917825 -1.09564,0.99228 -1.90187,1.6538 z"
         id="text1"
         aria-label="NoteInvader"
         sodipodi:nodetypes="sssssccsssssssssccsssssssssasaszsacscsssscsccsscssccssccscscssssscsssccsssssssssssssssscssccssccsccsssscccssscsscscsssssssscscsccssssscscsssssscccscssssssssccscscssssscsssccssssssscscssscsscc" /><g
         id="g70"
         transform="matrix(0.621794,0,0,0.621794,9.1799675,-3.0486245)"
         inkscape:export-filename="../source/tecweb-project/app/static/logo.svg"
         inkscape:export-xdpi="96"
         inkscape:export-ydpi="96"><rect
           width="32"
           height="32"
           fill="none"
           id="rect1-6"
           x="0"
           y="0" /><g
           fill="none"
           id="g50"><g
             clip-path="url(#f15idj)"
             id="g17"><path
               fill="url(#f15id0)"
               d="M 29.92,15.92 C 29.92,23.61 19,30 16,30 13,30 2.08,23.61 2.08,15.92 2.08,8.23 8.31,2 16,2 23.69,2 29.92,8.23 29.92,15.92"
               id="path1"
               style="fill:url(#f15id0)" /><path
               fill="url(#f15id1)"
               d="M 29.92,15.92 C 29.92,23.61 19,30 16,30 13,30 2.08,23.61 2.08,15.92 2.08,8.23 8.31,2 16,2 23.69,2 29.92,8.23 29.92,15.92"
               id="path2"
               style="fill:url(#f15id1)" /><path
               fill="url(#f15id2)"
               d="M 29.92,15.92 C 29.92,23.61 19,30 16,30 13,30 2.08,23.61 2.08,15.92 2.08,8.23 8.31,2 16,2 23.69,2 29.92,8.23 29.92,15.92"
               id="path3"
               style="fill:url(#f15id2)" /><g
               filter="url(#f15idb)"
               id="g3"><ellipse
                 cx="22.351999"
                 cy="9.901"
                 fill="#9efca0"
                 rx="3.8010001"
                 ry="5.7189999"
                 transform="rotate(-43.715,22.352,9.9)"
                 id="ellipse3" /></g><g
               filter="url(#f15idc)"
               id="g4"><ellipse
                 fill="#baeebc"
                 fill-opacity="0.75"
                 rx="1.012"
                 ry="3.253"
                 transform="matrix(-0.82310664,-0.56788684,-0.56788684,0.82310664,6.0084101,9.5629947)"
                 id="ellipse4"
                 cx="0"
                 cy="0" /></g><g
               filter="url(#f15idd)"
               id="g5"><path
                 fill="#608d6a"
                 fill-opacity="0.75"
                 d="M 12.73,21.194 C 10.415,23.576 7.404,22.623 5.078,20.23 2.752,17.837 2.002,14.933 4.318,12.54 a 5.824,5.824 0 0 1 8.402,0 c 2.316,2.382 2.337,6.272 0.01,8.654"
                 id="path4" /></g><g
               filter="url(#f15ide)"
               id="g6"><path
                 fill="#608d6a"
                 fill-opacity="0.75"
                 d="m 18.17,21.39 c 1.851,2.044 4.257,1.226 6.117,-0.829 1.859,-2.054 2.457,-4.546 0.607,-6.6 -1.85,-2.055 -4.864,-2.045 -6.715,0 -1.851,2.045 -1.867,5.384 -0.008,7.428"
                 id="path5" /></g><path
               fill="url(#f15id3)"
               d="M 13.36,20.78 C 11.18,22.96 8.9,21.7 6.71,19.51 4.52,17.32 3.26,15.05 5.44,12.86 c 2.18,-2.19 5.73,-2.18 7.91,0 2.18,2.18 2.2,5.74 0.01,7.92"
               id="path6"
               style="fill:url(#f15id3)" /><path
               fill="url(#f15id4)"
               d="M 13.36,20.78 C 11.18,22.96 8.9,21.7 6.71,19.51 4.52,17.32 3.26,15.05 5.44,12.86 c 2.18,-2.19 5.73,-2.18 7.91,0 2.18,2.18 2.2,5.74 0.01,7.92"
               id="path7"
               style="fill:url(#f15id4)" /><path
               fill="url(#f15id5)"
               d="M 13.36,20.78 C 11.18,22.96 8.9,21.7 6.71,19.51 4.52,17.32 3.26,15.05 5.44,12.86 c 2.18,-2.19 5.73,-2.18 7.91,0 2.18,2.18 2.2,5.74 0.01,7.92"
               id="path8"
               style="fill:url(#f15id5)" /><path
               fill="url(#f15id6)"
               d="m 18.64,20.78 c 2.18,2.18 4.46,0.92 6.65,-1.27 2.19,-2.19 3.45,-4.46 1.27,-6.65 -2.18,-2.19 -5.73,-2.18 -7.91,0 -2.18,2.18 -2.19,5.74 -0.01,7.92"
               id="path9"
               style="fill:url(#f15id6)" /><path
               fill="url(#f15id7)"
               d="m 18.64,20.78 c 2.18,2.18 4.46,0.92 6.65,-1.27 2.19,-2.19 3.45,-4.46 1.27,-6.65 -2.18,-2.19 -5.73,-2.18 -7.91,0 -2.18,2.18 -2.19,5.74 -0.01,7.92"
               id="path10"
               style="fill:url(#f15id7)" /><path
               fill="url(#f15id8)"
               d="m 18.64,20.78 c 2.18,2.18 4.46,0.92 6.65,-1.27 2.19,-2.19 3.45,-4.46 1.27,-6.65 -2.18,-2.19 -5.73,-2.18 -7.91,0 -2.18,2.18 -2.19,5.74 -0.01,7.92"
               id="path11"
               style="fill:url(#f15id8)" /><path
               fill="url(#f15id9)"
               d="m 18.64,20.78 c 2.18,2.18 4.46,0.92 6.65,-1.27 2.19,-2.19 3.45,-4.46 1.27,-6.65 -2.18,-2.19 -5.73,-2.18 -7.91,0 -2.18,2.18 -2.19,5.74 -0.01,7.92"
               id="path12"
               style="fill:url(#f15id9)" /><g
               filter="url(#f15idf)"
               id="g13"><path
                 stroke="#686061"
                 stroke-linecap="round"
                 stroke-width="0.75"
                 d="m 25.525,13.266 c 1.633,0.797 1.469,2.469 0.625,3.375"
                 id="path13" /></g><path
               fill="url(#f15idh)"
               d="m 25.67,13.11 c 0.78,0.78 0.92,1.9 0.31,2.51 -0.61,0.61 -1.73,0.47 -2.51,-0.31 -0.78,-0.78 -0.92,-1.9 -0.31,-2.51 0.61,-0.61 1.74,-0.46 2.51,0.31"
               id="path14"
               style="fill:url(#f15idh)" /><g
               filter="url(#f15idg)"
               id="g15"><path
                 stroke="#686061"
                 stroke-linecap="round"
                 stroke-width="0.75"
                 d="m 12.736,14.344 c 0.442,0.625 0.906,2.466 0.18,4.653"
                 id="path15" /></g><path
               fill="url(#f15idi)"
               d="m 12.39,13.11 c 0.78,0.78 0.92,1.9 0.31,2.51 -0.61,0.61 -1.73,0.47 -2.51,-0.31 -0.78,-0.78 -0.92,-1.9 -0.31,-2.51 0.61,-0.61 1.73,-0.46 2.51,0.31"
               id="path16"
               style="fill:url(#f15idi)" /><path
               stroke="url(#f15ida)"
               stroke-linecap="round"
               stroke-linejoin="round"
               stroke-width="1.8"
               d="m 13.992,25.047 c 0,0 0.79,0.844 2.024,0.844 1.234,0 1.992,-0.844 1.992,-0.844"
               id="path17"
               style="stroke:url(#f15ida)" /></g><defs
             id="defs50" /></g></g><g
         id="g72"
         transform="matrix(0.05160611,0,0,0.05963512,62.314359,-8.3436736)"
         inkscape:export-filename="../source/tecweb-project/app/static/logo.svg"
         inkscape:export-xdpi="96"
         inkscape:export-ydpi="96"><rect
           width="512"
           height="512"
           fill="none"
           id="rect1"
           x="0"
           y="0" /><path
           fill="currentColor"
           d="M 351.76302,69.992185 C 337.33118,73.831303 251.01075,97.861673 227.58388,104.24824 a 1.5920404,1.7939806 0 0 0 -1.23383,1.74016 v 252.16191 a 1.5920404,1.7939806 0 0 1 -1.05075,1.68634 l -32.3821,13.18576 c -23.73732,9.56192 -42.98509,16.989 -42.98509,52.97625 0,29.12527 18.73035,42.32 30.20896,44.84951 a 65.273655,73.553204 0 0 0 11.94031,0.96875 c 7.07662,0 24.67662,-3.22019 37.82688,-12.77314 21.91443,-15.94849 21.91443,-15.94849 21.91443,-44.71497 V 192.97852 a 1.5920404,1.7939806 0 0 1 1.18607,-1.74016 l 99.50252,-29.60068 a 1.5920404,1.7939806 0 0 0 1.18607,-1.74016 V 71.741316 a 1.5920404,1.7939806 0 0 0 -1.93433,-1.749131"
           id="path1-2"
           style="fill:#52f57b;fill-opacity:1;stroke-width:0.844999" /></g></g></g></svg>
